<svg id="Layer_1" enable-background="new 0 0 256 256" height="512" viewBox="0 0 256 256" width="512" xmlns="http://www.w3.org/2000/svg"><path d="m209.602 141.843h-6.936-11.224-6.136c-.76 0-1.455-.431-1.792-1.112l-20.146-40.68c-2.987-6.031-9.135-9.847-15.866-9.847h-75.274c-6.795 0-12.99 3.889-15.944 10.008l-18.022 37.331c-.786 1.629-2.276 2.807-4.042 3.197l-9.865 2.179c-4.957 1.095-8.486 5.489-8.486 10.565v17.375 19.18 11.312h225.246v-12.171-15.825-6.512c0-13.807-11.193-25-25-25z" fill="#f9a7a7"/><path d="m103.817 141.351h62.973c1.551 0 2.568-1.622 1.893-3.018l-16.921-35.011c-.98-2.025-2.957-3.283-5.162-3.283h-42.783c-1.161 0-2.103.941-2.103 2.103v37.106c0 1.161.942 2.103 2.103 2.103z" fill="#a4c9ff"/><path d="m91.2 139.215v-37.072c0-1.161-.941-2.103-2.103-2.103h-15.963c-2.196 0-4.232 1.309-5.186 3.336l-16.2 34.383c-.651 1.382.342 2.975 1.869 2.999l35.448.559c1.173.019 2.135-.928 2.135-2.102z" fill="#a4c9ff"/><path d="m166.79 143.351h-62.973c-2.262 0-4.103-1.841-4.103-4.103v-37.105c0-2.263 1.841-4.104 4.103-4.104h42.783c2.978 0 5.646 1.69 6.962 4.412l16.922 35.012c.618 1.279.536 2.762-.219 3.965-.754 1.204-2.054 1.923-3.475 1.923zm-62.973-41.312c-.057 0-.103.047-.103.104v37.105c0 .057.046.103.103.103h62.973l1.894-1.018-1.801.87-16.922-35.011c-.643-1.328-1.93-2.153-3.36-2.153z" fill="#3762cc"/><path d="m89.099 143.317c-.022 0-.044 0-.067 0l-35.447-.56c-1.399-.022-2.677-.745-3.417-1.933s-.826-2.652-.23-3.919l16.201-34.384c1.284-2.724 4.03-4.483 6.996-4.483h15.963c2.262 0 4.103 1.841 4.103 4.104v37.072c0 1.108-.435 2.146-1.225 2.924-.774.762-1.794 1.179-2.877 1.179zm-15.965-41.278c-1.425 0-2.751.859-3.377 2.188l-16.2 34.384.06 2.146.032-2 35.447.56.104-.103v-37.072c0-.057-.046-.104-.103-.104h-15.963z" fill="#3762cc"/><path d="m22.762 182.857h-6.893v-21.028h13.497c1.875 0 3.396 1.52 3.396 3.396v7.633c0 5.522-4.477 9.999-10 9.999z" fill="#ffea92"/><path d="m165.498 148.598h-6.422c-.938 0-1.699-.76-1.699-1.699v-21.232c0-.938.76-1.699 1.699-1.699h6.422c1.876 0 3.397 1.521 3.397 3.397v17.835c0 1.877-1.521 3.398-3.397 3.398z" fill="#4671c6"/><path d="m165.498 150.598h-6.422c-2.039 0-3.698-1.659-3.698-3.698v-21.231c0-2.04 1.659-3.699 3.698-3.699h6.422c2.977 0 5.397 2.421 5.397 5.397v17.835c.001 2.975-2.42 5.396-5.397 5.396zm-6.12-4h6.12c.771 0 1.397-.626 1.397-1.396v-17.835c0-.771-.627-1.397-1.397-1.397h-6.12z" fill="#3762cc"/><path d="m241.115 203.351h-225.246c-1.104 0-2-.896-2-2v-47.867c0-5.967 4.229-11.23 10.055-12.518l9.865-2.18c1.175-.259 2.149-1.029 2.672-2.113l18.022-37.331c3.267-6.767 10.232-11.139 17.746-11.139h75.275c7.544 0 14.311 4.2 17.657 10.96l20.146 40.68h30.809c14.888 0 27 12.112 27 27v34.508c-.001 1.104-.896 2-2.001 2zm-223.246-4h221.247v-32.508c0-12.683-10.317-23-23-23h-30.809c-1.53 0-2.904-.853-3.584-2.224l-20.146-40.681c-2.668-5.389-8.061-8.735-14.073-8.735h-75.276c-5.988 0-11.54 3.484-14.143 8.877l-18.022 37.331c-1.06 2.195-3.032 3.756-5.412 4.281l-9.864 2.18c-4.008.885-6.917 4.507-6.917 8.611v45.868z" fill="#3762cc"/><path d="m241 218.868h-226c-3.866 0-7-3.134-7-7v-12.811c0-3.866 3.134-7 7-7h226c3.866 0 7 3.134 7 7v12.811c0 3.866-3.134 7-7 7z" fill="#e0ebfc"/><path d="m241 220.868h-226c-4.962 0-9-4.037-9-9v-12.811c0-4.963 4.038-9 9-9h226c4.963 0 9 4.037 9 9v12.811c0 4.963-4.037 9-9 9zm-226-26.81c-2.757 0-5 2.243-5 5v12.811c0 2.757 2.243 5 5 5h226c2.757 0 5-2.243 5-5v-12.811c0-2.757-2.243-5-5-5z" fill="#3762cc"/><circle cx="62.812" cy="220.605" fill="#4671c6" r="28.547"/><path d="m62.812 235.168c-8.03 0-14.564-6.533-14.564-14.563s6.533-14.563 14.564-14.563 14.563 6.533 14.563 14.563-6.533 14.563-14.563 14.563z" fill="#f9cfcf"/><circle cx="193.188" cy="220.605" fill="#4671c6" r="28.547"/><circle cx="193.188" cy="220.605" fill="#f9cfcf" r="14.563"/><g fill="#3762cc"><path d="m62.812 251.152c-16.844 0-30.547-13.704-30.547-30.548s13.704-30.547 30.547-30.547 30.547 13.703 30.547 30.547-13.703 30.548-30.547 30.548zm0-57.094c-14.638 0-26.547 11.909-26.547 26.547 0 14.639 11.909 26.548 26.547 26.548s26.547-11.909 26.547-26.548c0-14.638-11.909-26.547-26.547-26.547z"/><path d="m193.188 251.152c-16.844 0-30.548-13.704-30.548-30.548s13.704-30.547 30.548-30.547 30.547 13.703 30.547 30.547-13.703 30.548-30.547 30.548zm0-57.094c-14.639 0-26.548 11.909-26.548 26.547 0 14.639 11.909 26.548 26.548 26.548 14.638 0 26.547-11.909 26.547-26.548 0-14.638-11.909-26.547-26.547-26.547z"/><path d="m62.812 237.168c-9.133 0-16.564-7.431-16.564-16.563s7.431-16.563 16.564-16.563 16.563 7.431 16.563 16.563-7.43 16.563-16.563 16.563zm0-29.127c-6.928 0-12.564 5.636-12.564 12.563s5.636 12.563 12.564 12.563 12.563-5.636 12.563-12.563-5.635-12.563-12.563-12.563z"/><path d="m193.188 237.168c-9.133 0-16.563-7.431-16.563-16.563s7.43-16.563 16.563-16.563 16.563 7.431 16.563 16.563-7.431 16.563-16.563 16.563zm0-29.127c-6.927 0-12.563 5.636-12.563 12.563s5.636 12.563 12.563 12.563c6.928 0 12.563-5.636 12.563-12.563s-5.636-12.563-12.563-12.563z"/></g><path d="m244 181.843h-13.608c-7.191 0-13.021-5.83-13.021-13.021v-2.627c0-1.851 1.501-3.352 3.352-3.352h23.277c2.209 0 4 1.791 4 4v11c0 2.209-1.791 4-4 4z" fill="#ffea92"/><path d="m244 183.843h-13.608c-8.282 0-15.021-6.738-15.021-15.021v-2.627c0-2.951 2.4-5.353 5.352-5.353h23.277c3.309 0 6 2.691 6 6v11c0 3.309-2.691 6.001-6 6.001zm-23.277-19c-.745 0-1.352.606-1.352 1.353v2.627c0 6.077 4.943 11.021 11.021 11.021h13.608c1.103 0 2-.897 2-2v-11c0-1.103-.897-2-2-2h-23.277z" fill="#3762cc"/><path d="m22.762 184.856h-6.894c-1.104 0-2-.896-2-2v-21.028c0-1.104.896-2 2-2h13.498c2.976 0 5.396 2.421 5.396 5.396v7.633c0 6.617-5.383 11.999-12 11.999zm-4.893-4h4.894c4.411 0 8-3.589 8-8v-7.633c0-.77-.626-1.396-1.396-1.396h-11.498z" fill="#3762cc"/><circle cx="197.44" cy="50.523" fill="#6bdddd" r="43.675"/><circle cx="197.44" cy="50.523" fill="#ffea92" r="32.444"/><path d="m197.439 96.198c-25.186 0-45.675-20.489-45.675-45.675s20.489-45.676 45.675-45.676 45.676 20.49 45.676 45.676-20.49 45.675-45.676 45.675zm0-87.35c-22.979 0-41.675 18.695-41.675 41.676 0 22.979 18.695 41.675 41.675 41.675s41.676-18.695 41.676-41.675c0-22.981-18.695-41.676-41.676-41.676z" fill="#3762cc"/><path d="m188.526 46.163h17.827c1.992 0 3.608-1.615 3.608-3.608v-14.504c0-1.992-1.615-3.608-3.608-3.608h-17.827c-1.992 0-3.608 1.615-3.608 3.608v14.505c.001 1.992 1.616 3.607 3.608 3.607z" fill="#f9a7a7"/><path d="m191.43 35.744h12.019c.83 0 1.503-.673 1.503-1.503v-1.951c0-.83-.673-1.503-1.503-1.503h-12.019c-.83 0-1.503.673-1.503 1.503v1.951c0 .83.673 1.503 1.503 1.503z" fill="#ffea92"/><path d="m202.122 53.032c.179-.17.28-.406.28-.653v-6.215h-9.925v25.842c0 .254.107.496.295.667l4.061 3.695c.344.313.87.313 1.214 0l3.656-3.328c.381-.346.395-.94.031-1.305l-1.297-1.297c-.358-.359-.351-.942.016-1.292l1.669-1.587c.179-.17.28-.407.28-.654v-9.03l-1.966-1.965c-.358-.358-.351-.942.016-1.291z" fill="#e0ebfc"/><path d="m206.354 48.163h-17.827c-3.092 0-5.607-2.516-5.607-5.607v-14.505c0-3.092 2.516-5.607 5.607-5.607h17.827c3.092 0 5.607 2.516 5.607 5.607v14.505c0 3.091-2.516 5.607-5.607 5.607zm-17.828-21.72c-.887 0-1.607.721-1.607 1.607v14.505c0 .887.721 1.607 1.607 1.607h17.827c.887 0 1.607-.721 1.607-1.607v-14.504c0-.887-.721-1.607-1.607-1.607h-17.827z" fill="#3762cc"/><path d="m203.449 37.744h-12.02c-1.932 0-3.503-1.571-3.503-3.503v-1.951c0-1.932 1.571-3.503 3.503-3.503h12.02c1.932 0 3.503 1.571 3.503 3.503v1.951c0 1.932-1.571 3.503-3.503 3.503zm-11.522-4h11.025v-.957h-11.025z" fill="#3762cc"/><path d="m197.438 78.606c-.698 0-1.396-.253-1.951-.759l-4.062-3.695c-.604-.555-.948-1.335-.948-2.147v-25.842c0-1.104.896-2 2-2h9.925c1.104 0 2 .896 2 2v6.216c0 .788-.327 1.553-.898 2.099-.001.001-.002.003-.003.004l-.854.812 1.169 1.168c.375.376.586.885.586 1.415v9.03c0 .791-.329 1.558-.902 2.103l-.853.812.5.501c.56.559.869 1.333.85 2.123-.02.789-.365 1.546-.95 2.076l-3.653 3.327c-.559.505-1.257.757-1.956.757zm-2.96-7.085 2.962 2.694 2.066-1.88-.483-.483c-.558-.558-.859-1.299-.85-2.087.01-.777.338-1.53.901-2.066l1.328-1.264v-7.73l-1.38-1.379c-.55-.551-.859-1.313-.85-2.09.01-.778.339-1.531.903-2.066l1.326-1.262v-3.745h-5.925v23.358zm5.878.04c0 .001-.001.002-.002.002zm1.477-15.494-.001.002c0-.001.001-.001.001-.002zm.289-3.035h.01z" fill="#3762cc"/><path d="m127.107 131.84c-.645 0-1.29-.246-1.782-.738-.984-.984-.984-2.58 0-3.564l17.25-17.25c.984-.984 2.579-.984 3.563 0s.984 2.58 0 3.564l-17.25 17.25c-.492.492-1.137.738-1.781.738z" fill="#e0ebfc"/><path d="m112.627 131.84c-.645 0-1.29-.246-1.782-.738-.984-.984-.984-2.58 0-3.564l17.25-17.25c.984-.984 2.579-.984 3.563 0s.984 2.58 0 3.564l-17.25 17.25c-.492.492-1.136.738-1.781.738z" fill="#e0ebfc"/><path d="m66.627 131.84c-.645 0-1.29-.246-1.782-.738-.984-.984-.984-2.58 0-3.564l17.25-17.25c.984-.984 2.579-.984 3.563 0s.984 2.58 0 3.564l-17.25 17.25c-.492.492-1.136.738-1.781.738z" fill="#e0ebfc"/></svg>