<?xml version="1.0" encoding="iso-8859-1"?>
<!-- Generator: Adobe Illustrator 19.0.0, SVG Export Plug-In . SVG Version: 6.00 Build 0)  -->
<svg version="1.1" id="Capa_1" xmlns="http://www.w3.org/2000/svg" xmlns:xlink="http://www.w3.org/1999/xlink" x="0px" y="0px"
	 viewBox="0 0 512 512" style="enable-background:new 0 0 512 512;" xml:space="preserve">
<polygon style="fill:#F3F3F3;" points="101.333,322.133 410.667,322.133 512,512 0,512 "/>
<polygon style="fill:#66C6B9;" points="94.933,414.933 66.133,481.067 147.2,481.067 193.067,426.667 "/>
<g>
	<polygon style="fill:#FFD15C;" points="235.733,432 200.533,481.067 445.867,481.067 435.2,456.533 	"/>
	<polygon style="fill:#FFD15C;" points="209.067,406.4 268.8,334.933 128,334.933 103.467,394.667 	"/>
</g>
<polygon style="fill:#66C6B9;" points="250.667,411.733 424.533,430.933 384,334.933 304,334.933 "/>
<path style="fill:#F3705A;" d="M416,160c0,88.533-160,275.2-160,275.2S96,248.533,96,160S167.467,0,256,0S416,71.467,416,160z"/>
<circle style="fill:#FFFFFF;" cx="256" cy="160" r="114.133"/>
<rect x="205.867" y="156.8" style="fill:#E8EAE9;" width="99.2" height="71.467"/>
<polygon style="fill:#66C6B9;" points="332.8,156.8 256,81.067 179.2,156.8 "/>
<rect x="241.067" y="192" style="fill:#415A6B;" width="28.8" height="36.267"/>
<g>
</g>
<g>
</g>
<g>
</g>
<g>
</g>
<g>
</g>
<g>
</g>
<g>
</g>
<g>
</g>
<g>
</g>
<g>
</g>
<g>
</g>
<g>
</g>
<g>
</g>
<g>
</g>
<g>
</g>
</svg>
