<?xml version="1.0" encoding="iso-8859-1"?>
<!-- Generator: Adobe Illustrator 19.0.0, SVG Export Plug-In . SVG Version: 6.00 Build 0)  -->
<svg version="1.1" id="Capa_1" xmlns="http://www.w3.org/2000/svg" xmlns:xlink="http://www.w3.org/1999/xlink" x="0px" y="0px"
	 viewBox="0 0 514.133 514.133" style="enable-background:new 0 0 514.133 514.133;" xml:space="preserve">
<path style="fill:#415A6B;" d="M193.067,386.651l-26.667,6.4l-8.533-32l26.667-6.4c3.2-1.067,6.4,1.067,6.4,4.267l5.333,21.333
	C197.333,382.385,196.267,385.585,193.067,386.651z"/>
<path style="fill:#8AD7F8;" d="M194.133,431.451l-28.8-125.867H74.667L108.8,450.651c4.267,20.267,22.4,34.133,42.667,34.133l0,0
	C179.2,485.851,200.533,459.185,194.133,431.451z"/>
<path style="fill:#415A6B;" d="M444.8,167.985c38.4,0,69.333,30.933,69.333,69.333S483.2,306.651,444.8,306.651"/>
<path style="fill:#E8EAE9;" d="M418.133,46.385v380.8l0,0c-55.467-66.133-137.6-104.533-224-104.533h-70.4V150.918h70.4
	C280.533,150.918,362.667,112.518,418.133,46.385L418.133,46.385z"/>
<path style="fill:#8AD7F8;" d="M448,48.518v376.533c0,10.667-8.533,19.2-19.2,19.2l0,0c-10.667,0-19.2-8.533-19.2-19.2V48.518
	c0-10.667,8.533-19.2,19.2-19.2l0,0C439.467,29.318,448,37.851,448,48.518z"/>
<path style="fill:#415A6B;" d="M0,237.318L0,237.318c0,55.467,44.8,101.333,101.333,101.333h105.6c8.533,0,14.933-6.4,14.933-14.933
	v-172.8c0-8.533-6.4-14.933-14.933-14.933h-105.6C45.867,135.985,0,180.785,0,237.318z"/>
<g>
	<path style="fill:#344A5E;" d="M74.667,201.051L74.667,201.051c0,9.6,7.467,18.133,18.133,18.133h77.867
		c9.6,0,18.133-7.467,18.133-18.133l0,0c0-9.6-7.467-18.133-18.133-18.133H91.733C82.133,183.985,74.667,191.451,74.667,201.051z"/>
	<path style="fill:#344A5E;" d="M74.667,272.518L74.667,272.518c0,9.6,7.467,18.133,18.133,18.133h77.867
		c9.6,0,18.133-7.467,18.133-18.133l0,0c0-9.6-7.467-18.133-18.133-18.133H91.733C82.133,254.385,74.667,262.918,74.667,272.518z"/>
</g>
<g>
</g>
<g>
</g>
<g>
</g>
<g>
</g>
<g>
</g>
<g>
</g>
<g>
</g>
<g>
</g>
<g>
</g>
<g>
</g>
<g>
</g>
<g>
</g>
<g>
</g>
<g>
</g>
<g>
</g>
</svg>
