<?xml version="1.0" ?><svg id="Layer_1" style="enable-background:new 0 0 64 64;" version="1.1" viewBox="0 0 64 64" xml:space="preserve" xmlns="http://www.w3.org/2000/svg" xmlns:xlink="http://www.w3.org/1999/xlink"><style type="text/css">
	.st0{fill:#62BEE7;}
	.st1{fill:#474E5E;}
	.st2{fill:#F3EEE4;}
	.st3{fill:#FFFFFF;}
	.st4{fill:#E8DCCA;}
	.st5{opacity:0.1;fill:#231F20;}
	.st6{fill:#506268;}
	.st7{fill:#EB5151;}
	.st8{fill:#C64444;}
	.st9{fill:#9CCB5B;}
	.st10{fill:#404A4C;}
	.st11{fill:#676767;}
	.st12{fill:#E0E1E5;}
	.st13{fill:#9D9EA0;}
	.st14{fill:#B3B4B7;}
	.st15{opacity:0.1;}
	.st16{fill:#231F20;}
	.st17{fill:#FACC20;}
	.st18{fill:#FDEF34;}
	.st19{fill:#F7A90B;}
	.st20{fill:#20B8EA;}
	.st21{fill:#00A8EA;}
	.st22{fill:#33D3F4;}
	.st23{opacity:0.25;fill:#FFFFFF;}
	.st24{fill:#CACBCE;}
	.st25{fill:#2E3545;}
	.st26{fill:#8DAF4A;}
	.st27{fill:#F9C2AF;}
	.st28{fill:#AFDDF4;}
	.st29{fill:#677177;}
	.st30{fill:#FFEDB3;}
	.st31{fill:#695652;}
	.st32{fill:#30A7BF;}
	.st33{fill:#4D5556;}
	.st34{opacity:0.35;}
	.st35{fill:#FFCB04;}
	.st36{fill:#99E9FA;}
	.st37{opacity:0.2;}
	.st38{opacity:3.000000e-02;}
	.st39{fill:#9ECA5B;}
	.st40{fill:#98BA56;}
	.st41{fill:#40EEFF;}
	.st42{fill:#FF6A52;}
	.st43{opacity:0.1;fill:#FFFFFF;}
	.st44{opacity:0.4;}
	.st45{fill:#57606D;}
	.st46{fill:#BACA5B;}
	.st47{opacity:0.25;}
	.st48{opacity:5.000000e-02;fill:#231F20;}
	.st49{opacity:0.2;fill:#FFFFFF;}
	.st50{opacity:0.3;}
	.st51{fill:#FFD82F;}
	.st52{fill:#F4C121;}
	.st53{fill:#EF9D0A;}
	.st54{fill:#F9E532;}
	.st55{fill:#F4C01E;}
	.st56{fill:#FFE14D;}
	.st57{fill:#B7C156;}
	.st58{fill:#DBA92C;}
	.st59{fill:#363D4D;}
	.st60{fill:#3F4656;}
	.st61{fill:#463E33;}
	.st62{fill:none;}
	.st63{opacity:4.000000e-02;}
	.st64{fill:#4DB6AC;}
	.st65{fill:#CADE49;}
	.st66{fill:#9FD343;}
	.st67{fill:#AAD643;}
	.st68{fill:#82C736;}
	.st69{opacity:0.3;fill:#FFFFFF;}
	.st70{fill:#FFD640;}
	.st71{opacity:0.5;}
	.st72{opacity:0.6;}
</style><g><circle class="st9" cx="32" cy="32" r="32"/><g><g><path class="st3" d="M39.9,56c1.9,0,3.5-1.6,3.5-3.5v-41c0-1.9-1.6-3.5-3.5-3.5H17.7c-1.9,0-3.5,1.6-3.5,3.5v41     c0,1.9,1.6,3.5,3.5,3.5H39.9z"/></g><g><rect class="st21" height="32.1" width="29.2" x="14.2" y="15"/></g><g><path class="st14" d="M28.8,53.9c-1.3,0-2.3-1-2.3-2.3s1-2.3,2.3-2.3c1.3,0,2.3,1,2.3,2.3S30.1,53.9,28.8,53.9z M28.8,49.9     c-0.9,0-1.6,0.7-1.6,1.6s0.7,1.6,1.6,1.6c0.9,0,1.6-0.7,1.6-1.6S29.7,49.9,28.8,49.9z"/></g><g><path class="st14" d="M33.6,11.1h-6.5c-0.2,0-0.3,0.2-0.3,0.3c0,0.2,0.2,0.3,0.3,0.3h6.5c0.2,0,0.3-0.2,0.3-0.3     C33.9,11.3,33.8,11.1,33.6,11.1z"/><path class="st14" d="M25.7,11.1H24c-0.2,0-0.3,0.2-0.3,0.3c0,0.2,0.2,0.3,0.3,0.3h1.6c0.2,0,0.3-0.2,0.3-0.3     C26,11.3,25.9,11.1,25.7,11.1z"/></g><path class="st43" d="M16.3,52.5v-41c0-1.9,1.6-3.5,3.5-3.5h-2.1c-1.9,0-3.5,1.6-3.5,3.5v41c0,1.9,1.6,3.5,3.5,3.5h2.1    C17.9,56,16.3,54.4,16.3,52.5z"/><path class="st5" d="M41.3,11.5v41c0,1.9-1.6,3.5-3.5,3.5h2.1c1.9,0,3.5-1.6,3.5-3.5v-41c0-1.9-1.6-3.5-3.5-3.5h-2.1    C39.7,8,41.3,9.6,41.3,11.5z"/><g><rect class="st22" height="9" width="9" x="18.8" y="21"/><rect class="st22" height="9" width="9" x="18.8" y="32.1"/><rect class="st22" height="9" width="9" x="29.9" y="21"/><rect class="st22" height="9" width="9" x="29.9" y="32.1"/></g><g><g><path class="st17" d="M37.3,18.2c-6.9,0-12.5,4.3-12.5,9.5c0,3.2,2.1,6,5.3,7.7c-0.1,2.1-0.7,4.1-0.7,4.1c2-0.6,4.5-2.1,5.3-2.6      c0.9,0.1,1.8,0.2,2.7,0.2c6.9,0,12.5-4.3,12.5-9.5S44.2,18.2,37.3,18.2z"/></g><circle class="st48" cx="37.3" cy="27.9" r="7.7"/><g><g><path class="st8" d="M40.8,28.9c-0.1-0.4-0.6-1.5-3-1.9V24c0.6,0.2,1,0.6,1.1,1.2c0.1,0.5,0.4,0.7,0.9,0.7       c0.2,0,1.7-0.4,0.2-2.3c-0.2-0.3-0.7-0.8-2.2-1v-1.2h-0.9v1.2c-2.8,0.3-3,2.1-3,2.9c0,2.4,2.4,2.8,3,3v3.3       c-1.1-0.3-1.4-1.4-1.5-1.8c-0.2-0.5-0.6-0.6-0.8-0.6c-0.7,0-0.9,0.7-0.9,0.9c0,0.3,0.2,1.7,1.8,2.6c0.4,0.2,0.9,0.3,1.4,0.4       l0,1.1h0.9v-1.1c0.7-0.1,1.2-0.2,1.7-0.5C40.8,31.9,41.3,30.3,40.8,28.9z M36.9,26.7c-0.7-0.3-1.2-0.5-1.3-1.4       c0-0.4,0.1-1.1,1.3-1.3V26.7z M37.8,31.8v-3.1c1.5,0.5,1.5,1.1,1.5,1.5C39.2,30.6,39.2,31.5,37.8,31.8z"/></g></g></g></g></g></svg>