<?xml version="1.0" encoding="iso-8859-1"?>
<!-- Generator: Adobe Illustrator 19.0.0, SVG Export Plug-In . SVG Version: 6.00 Build 0)  -->
<svg version="1.1" id="Capa_1" xmlns="http://www.w3.org/2000/svg" xmlns:xlink="http://www.w3.org/1999/xlink" x="0px" y="0px"
	 viewBox="0 0 512.001 512.001" style="enable-background:new 0 0 512.001 512.001;" xml:space="preserve">
<polygon style="fill:#CED6E0;" points="88.533,224 256,56.533 423.467,224 461.867,224 256,19.2 50.133,224 "/>
<path style="fill:#66C6B9;" d="M469.333,512H42.667C19.2,512,0,492.8,0,469.333v-204.8c0-23.467,19.2-42.667,42.667-42.667h426.667
	c23.467,0,42.667,19.2,42.667,42.667v204.8C512,492.8,492.8,512,469.333,512z"/>
<rect x="42.667" y="264.53" style="fill:#FFFFFF;" width="426.67" height="204.8"/>
<g>
	<path style="fill:#415A6B;" d="M150.4,350.934c0,14.933-6.4,25.6-18.133,29.867l24.533,34.133h-25.6l-21.333-29.867h-16v29.867
		H72.533V320H108.8c14.933,0,25.6,2.133,32,7.467C147.2,331.733,150.4,339.201,150.4,350.934z M124.8,361.6
		c2.133-2.133,4.267-6.4,4.267-11.733s-1.067-8.533-4.267-10.667c-3.2-2.133-7.467-3.2-13.867-3.2H93.867v27.733
		C93.867,363.733,119.153,366.4,124.8,361.6z"/>
	<path style="fill:#415A6B;" d="M240,318.934v19.2h-46.933v19.2h42.667v18.133h-42.667v19.2h49.067v19.2h-70.4v-94.933L240,318.934
		L240,318.934z"/>
	<path style="fill:#415A6B;" d="M327.467,318.934H348.8v94.933h-21.333l-44.8-59.733v59.733h-21.333v-94.933H281.6l46.933,60.8
		v-60.8L327.467,318.934L327.467,318.934z"/>
	<path style="fill:#415A6B;" d="M411.733,337.067v76.8H390.4v-76.8h-26.667v-18.133H438.4v18.133L411.733,337.067L411.733,337.067z"
		/>
</g>
<circle style="fill:#F3705A;" cx="256" cy="37.33" r="37.33"/>
<circle style="fill:#F05540;" cx="256" cy="37.33" r="18.13"/>
<g>
</g>
<g>
</g>
<g>
</g>
<g>
</g>
<g>
</g>
<g>
</g>
<g>
</g>
<g>
</g>
<g>
</g>
<g>
</g>
<g>
</g>
<g>
</g>
<g>
</g>
<g>
</g>
<g>
</g>
</svg>
