<?xml version="1.0" encoding="iso-8859-1"?>
<!-- Generator: Adobe Illustrator 19.0.0, SVG Export Plug-In . SVG Version: 6.00 Build 0)  -->
<svg version="1.1" id="Capa_1" xmlns="http://www.w3.org/2000/svg" xmlns:xlink="http://www.w3.org/1999/xlink" x="0px" y="0px"
	 viewBox="0 0 512 512" style="enable-background:new 0 0 512 512;" xml:space="preserve">
<path style="fill:#344A5E;" d="M356.267,449.067c-4.267-18.133-16-33.067-33.067-40.533L235.733,371.2l-50.133,16l-50.133-16
	L48,408.533c-16,7.467-28.8,22.4-32,40.533L2.133,512h366.933L356.267,449.067z"/>
<polygon style="fill:#CED6E0;" points="201.6,512 244.267,374.4 235.733,371.2 185.6,388.267 135.467,371.2 125.867,375.467 
	170.667,512 "/>
<g>
	<polygon style="fill:#F3705A;" points="200.533,433.067 215.467,418.133 185.6,388.267 156.8,418.133 171.733,433.067 	"/>
	<polygon style="fill:#F3705A;" points="211.2,512 200.533,433.067 171.733,433.067 160,512 	"/>
</g>
<rect x="149.333" y="301.867" style="fill:#F7B64C;" width="73.6" height="86.4"/>
<ellipse style="fill:#415A6B;" cx="184.533" cy="232.533" rx="73.6" ry="82.133"/>
<g>
	<path style="fill:#FFD15C;" d="M263.467,274.133c-2.133,12.8-9.6,22.4-16,20.267c-6.4-2.133-8.533-13.867-6.4-27.733
		c2.133-12.8,9.6-22.4,16-20.267C263.467,248.533,265.6,260.267,263.467,274.133z"/>
	<path style="fill:#FFD15C;" d="M108.8,274.133c2.133,12.8,9.6,22.4,16,20.267c6.4-2.133,8.533-13.867,6.4-27.733
		c-2.133-12.8-9.6-22.4-16-20.267C108.8,248.533,105.6,260.267,108.8,274.133z"/>
</g>
<g>
	<polygon style="fill:#F3F3F3;" points="185.6,388.267 158.933,430.933 128,374.4 149.333,352 	"/>
	<polygon style="fill:#F3F3F3;" points="185.6,388.267 213.333,430.933 244.267,374.4 222.933,352 	"/>
</g>
<path style="fill:#FFD15C;" d="M209.067,189.867c-8.533,10.667-25.6,17.067-44.8,21.333c-25.6,5.333-44.8,27.733-44.8,54.4v16
	c0,34.133,24.533,65.067,58.667,68.267C217.6,354.133,249.6,323.2,249.6,283.733v-33.067c0-20.267-9.6-38.4-27.733-48
	C217.6,199.467,213.333,196.267,209.067,189.867z"/>
<g>
	<polygon style="fill:#415A6B;" points="221.867,512 281.6,451.2 246.4,433.067 281.6,407.467 244.267,374.4 198.4,512 	"/>
	<polygon style="fill:#415A6B;" points="149.333,512 173.867,512 128,374.4 90.667,407.467 125.867,433.067 90.667,451.2 	"/>
</g>
<path style="fill:#8AD7F8;" d="M481.067,0H284.8c-16,0-28.8,12.8-28.8,28.8v144c0,16,12.8,28.8,28.8,28.8h7.467v65.067l115.2-65.067
	h73.6c16,0,28.8-12.8,28.8-28.8v-144C509.867,12.8,497.067,0,481.067,0z"/>
<polygon style="fill:#F3705A;" points="458.667,89.6 382.933,27.733 306.133,89.6 "/>
<rect x="326.4" y="89.6" style="fill:#FFFFFF;" width="112" height="85.333"/>
<rect x="365.867" y="135.467" style="fill:#415A6B;" width="33.067" height="39.467"/>
<g>
</g>
<g>
</g>
<g>
</g>
<g>
</g>
<g>
</g>
<g>
</g>
<g>
</g>
<g>
</g>
<g>
</g>
<g>
</g>
<g>
</g>
<g>
</g>
<g>
</g>
<g>
</g>
<g>
</g>
</svg>
